<?xml version="1.0" standalone="no"?>
<!DOCTYPE svg PUBLIC "-//W3C//DTD SVG 20010904//EN"
 "http://www.w3.org/TR/2001/REC-SVG-20010904/DTD/svg10.dtd">
<svg version="1.0" xmlns="http://www.w3.org/2000/svg"
 width="1920.000000pt" height="1920.000000pt" viewBox="0 0 1920.000000 1920.000000"
 preserveAspectRatio="xMidYMid meet">

<g transform="translate(0.000000,1920.000000) scale(0.100000,-0.100000)"
fill="#000000" stroke="none">
<path d="M0 9600 l0 -9600 9600 0 9600 0 0 9600 0 9600 -9600 0 -9600 0 0
-9600z m19190 0 l0 -9590 -9590 0 -9590 0 0 9590 0 9590 9590 0 9590 0 0
-9590z"/>
<path d="M6880 13609 c-456 -33 -880 -206 -1300 -529 -129 -99 -448 -421 -543
-548 -42 -56 -110 -159 -151 -230 -149 -252 -185 -302 -310 -428 -71 -71 -179
-164 -262 -226 -136 -101 -187 -135 -488 -322 -317 -198 -494 -368 -582 -559
-54 -119 -66 -194 -69 -442 -3 -296 -6 -304 -139 -480 -111 -146 -170 -302
-183 -486 -12 -179 33 -294 212 -539 77 -104 118 -185 147 -287 20 -70 23 -99
22 -298 0 -121 -2 -319 -5 -440 -4 -196 -2 -225 15 -270 27 -74 62 -114 125
-144 49 -23 68 -26 156 -25 432 3 769 277 925 753 41 126 60 236 67 381 6 123
-11 330 -27 330 -4 0 -30 -89 -57 -197 -59 -233 -95 -329 -164 -446 -157 -263
-395 -497 -616 -608 -231 -115 -357 -21 -340 256 4 55 13 123 21 150 8 28 30
106 50 174 82 280 88 482 18 631 -25 54 -91 126 -225 247 -64 58 -82 91 -96
184 -8 49 -7 80 4 130 18 87 39 128 146 279 98 140 152 245 170 329 14 70 6
237 -15 311 -23 80 -31 226 -17 302 27 136 123 291 259 420 105 99 217 182
482 358 333 222 458 316 570 429 81 82 110 121 193 261 123 207 233 346 461
577 249 255 390 368 584 470 188 100 438 182 661 217 938 149 1826 -242 2565
-1129 60 -71 113 -132 118 -133 20 -8 -82 233 -150 353 -345 613 -1011 1078
-1717 1199 -84 15 -345 38 -390 34 -11 0 -67 -4 -125 -9z"/>
<path d="M11327 13155 c-251 -96 -483 -504 -611 -1075 -14 -63 -32 -169 -41
-235 -19 -138 -31 -448 -21 -491 8 -29 8 -28 38 30 49 96 111 264 259 703 243
720 312 850 475 899 59 17 128 6 188 -30 148 -89 327 -362 504 -766 27 -63 78
-179 112 -258 34 -78 66 -144 70 -147 9 -6 3 64 -16 175 -57 331 -243 740
-444 972 -77 90 -150 150 -233 194 -64 34 -81 38 -157 41 -56 2 -98 -2 -123
-12z"/>
<path d="M11700 12233 c0 -5 9 -90 20 -188 11 -98 17 -181 15 -183 -2 -3 -60
16 -128 42 -68 25 -126 46 -129 46 -3 0 -9 -72 -13 -159 l-7 -159 -73 5 c-39
3 -103 0 -141 -6 -85 -15 -184 -44 -184 -53 0 -19 60 -39 231 -77 102 -23 191
-41 197 -41 6 0 13 30 17 68 4 37 9 74 11 82 3 13 37 19 159 31 85 9 158 19
162 23 4 3 9 58 11 121 6 166 -18 276 -83 380 -32 51 -65 85 -65 68z"/>
<path d="M9421 12209 c-52 -5 -99 -10 -105 -13 -19 -6 36 -23 200 -61 245 -57
369 -113 438 -199 42 -52 58 -82 90 -179 46 -138 109 -248 196 -341 46 -50
164 -143 234 -186 l39 -24 -48 60 c-79 96 -122 168 -225 379 -114 232 -174
327 -256 408 -127 126 -313 177 -563 156z"/>
<path d="M15430 12060 c-184 -22 -409 -108 -675 -258 -141 -78 -423 -270 -448
-304 -29 -39 -70 -118 -61 -118 10 0 116 65 229 140 280 186 626 338 880 385
61 12 119 16 180 13 141 -8 202 -43 247 -142 21 -47 23 -64 22 -216 0 -145 -4
-183 -31 -315 -33 -156 -85 -341 -196 -700 -35 -115 -68 -223 -72 -240 -6 -29
-6 -29 26 10 174 215 344 579 410 876 30 135 38 409 15 513 -59 262 -247 389
-526 356z"/>
<path d="M9435 11972 c-46 -28 -58 -48 -50 -79 10 -43 33 -62 122 -103 100
-47 149 -91 274 -250 55 -69 147 -183 205 -255 116 -143 228 -305 275 -397
l30 -59 -48 -21 c-68 -30 -236 -62 -573 -108 -584 -80 -676 -105 -806 -227
-23 -21 -91 -95 -153 -165 -118 -135 -201 -205 -291 -247 -49 -22 -68 -25
-165 -25 -101 0 -117 2 -191 32 -103 41 -179 94 -228 159 -34 47 -44 53 -95
64 -60 13 -321 4 -741 -26 -113 -8 -329 -21 -480 -30 -411 -23 -579 -48 -734
-105 -29 -11 -113 -56 -186 -100 -74 -44 -137 -80 -142 -80 -5 0 -13 12 -19
28 -25 67 -91 208 -226 482 -80 162 -189 394 -242 516 -54 121 -123 263 -154
316 -83 141 -184 244 -259 263 -31 8 -80 -43 -107 -111 l-20 -52 119 -61 c89
-46 129 -74 162 -110 61 -68 129 -186 192 -331 67 -154 213 -584 268 -785 40
-146 41 -155 43 -325 3 -213 8 -228 108 -325 65 -63 76 -77 95 -140 12 -38 31
-131 42 -205 26 -177 68 -268 174 -375 119 -121 227 -162 500 -191 214 -23
595 -15 754 15 370 70 648 242 829 512 59 88 83 133 207 391 103 216 146 274
233 318 38 19 64 24 123 25 66 0 85 -5 142 -33 110 -54 187 -150 298 -372 98
-196 190 -288 371 -373 65 -30 70 -36 93 -102 10 -27 56 -129 101 -225 98
-206 125 -280 132 -370 15 -184 -134 -297 -452 -342 -125 -17 -528 -17 -578 0
-44 16 -62 46 -72 119 l-7 53 47 20 c65 28 140 46 289 70 124 20 236 54 243
75 8 26 -539 11 -717 -20 -349 -61 -501 -196 -541 -481 -18 -131 20 -263 99
-342 22 -22 54 -43 71 -47 69 -15 145 63 236 244 l37 74 68 -5 c108 -8 186
-62 211 -148 24 -80 -19 -158 -111 -205 -58 -29 -180 -55 -260 -55 -59 0 -61
-1 -55 -22 25 -85 155 -239 262 -311 83 -56 206 -99 271 -95 l46 3 67 118 c64
114 89 151 89 132 0 -43 -25 -145 -41 -171 -22 -37 -253 -196 -367 -253 -192
-96 -394 -142 -627 -143 -219 0 -439 39 -620 110 -222 86 -289 169 -435 537
-201 505 -304 744 -317 731 -13 -12 96 -667 137 -829 40 -154 109 -276 219
-384 221 -217 556 -323 976 -310 224 7 355 32 608 114 15 5 17 -2 18 -43 0
-27 5 -65 12 -84 11 -32 16 -35 67 -43 127 -19 237 11 307 85 l28 30 -40 -6
c-80 -13 -221 31 -303 93 l-23 17 75 52 c41 29 78 52 81 52 4 0 29 -18 55 -40
238 -200 548 -218 887 -53 165 80 273 204 329 378 35 109 44 301 20 463 -9 62
-20 120 -23 129 -4 11 -14 -22 -24 -80 -38 -215 -115 -412 -214 -552 -192
-269 -495 -368 -708 -233 -55 35 -127 113 -127 138 0 18 50 54 170 125 36 21
92 60 125 86 80 63 215 219 215 249 0 7 -15 38 -34 69 -35 57 -65 167 -49 180
10 9 134 95 149 104 8 5 23 -28 45 -94 18 -56 40 -104 48 -107 23 -9 99 38
146 90 117 131 163 409 111 680 -34 178 -82 294 -203 498 -66 110 -123 221
-123 239 0 4 60 11 133 14 459 22 806 155 1052 401 174 175 293 399 360 679
34 142 85 469 85 547 0 87 -29 146 -86 178 -43 23 -148 41 -245 42 -53 0 -56
1 -72 34 -52 110 -203 316 -544 742 -265 331 -300 364 -382 364 -27 0 -58 -8
-76 -18z m1184 -1516 c56 -51 -5 -315 -126 -546 -100 -191 -246 -388 -351
-475 -118 -98 -223 -140 -429 -176 -115 -19 -152 -21 -372 -16 l-244 5 -33 38
c-100 117 -167 352 -180 629 -5 112 5 247 19 262 11 11 379 138 497 172 356
102 559 130 931 128 247 -2 268 -3 288 -21z m-3315 -417 c362 -48 468 -259
322 -637 -64 -167 -184 -386 -249 -457 -20 -22 -37 -43 -37 -47 0 -4 -13 -14
-29 -23 -21 -10 -28 -20 -24 -34 4 -15 -2 -20 -30 -25 -19 -4 -37 -13 -40 -20
-16 -40 -225 -105 -407 -127 -133 -15 -462 -6 -585 16 -285 51 -457 154 -540
322 -99 203 -94 538 11 758 53 110 56 113 169 135 634 127 1153 177 1439 139z"/>
<path d="M10361 10090 c-65 -231 -195 -430 -349 -533 -134 -90 -241 -121 -470
-138 -147 -10 -202 -24 -202 -49 0 -16 182 -33 297 -27 282 13 499 132 645
356 65 99 99 208 105 336 7 140 2 152 -26 55z"/>
<path d="M5757 9514 c-3 -5 -10 -44 -17 -86 -15 -94 -9 -211 15 -297 16 -55
24 -68 64 -97 71 -52 256 -141 353 -168 127 -36 244 -49 388 -43 130 5 333 35
325 47 -2 4 -77 10 -165 14 -290 12 -426 38 -570 108 -152 74 -289 236 -323
384 -18 75 -59 156 -70 138z"/>
<path d="M6155 11945 c-11 -2 -55 -7 -99 -10 -43 -4 -74 -10 -70 -14 21 -19
147 -60 244 -81 125 -26 238 -66 328 -116 137 -75 201 -147 301 -339 62 -118
97 -172 106 -163 11 11 -15 238 -34 299 -57 182 -267 359 -481 405 -65 14
-257 26 -295 19z"/>
<path d="M12365 11773 c3 -21 17 -61 29 -89 35 -76 61 -85 402 -144 159 -27
433 -79 609 -115 311 -64 549 -105 610 -105 l30 0 -25 20 c-166 128 -649 302
-1105 398 -206 44 -401 72 -497 72 l-60 0 7 -37z"/>
<path d="M8797 11722 c-108 -164 -182 -394 -194 -603 -10 -189 35 -328 131
-400 45 -34 130 -68 141 -57 3 3 -15 54 -40 114 -25 60 -45 112 -45 117 0 4
10 7 23 7 37 0 166 39 226 68 78 39 154 111 181 174 28 65 31 144 7 181 -9 14
-14 32 -11 40 3 9 -6 24 -22 36 -33 26 -48 27 -35 2 10 -17 4 -21 -53 -36 -53
-14 -70 -15 -100 -5 -20 6 -36 12 -36 13 0 1 -4 17 -9 34 -8 26 -5 41 13 77
l22 44 -30 6 c-17 3 -68 10 -113 17 -46 6 -83 14 -83 18 0 15 29 109 45 145
22 51 14 55 -18 8z m59 -542 c46 -44 89 -80 96 -80 17 0 62 -70 51 -80 -4 -4
-31 -15 -59 -24 -48 -16 -54 -16 -100 1 -42 16 -52 25 -72 68 -21 44 -23 58
-17 122 4 40 9 73 12 73 3 0 43 -36 89 -80z"/>
<path d="M15210 11497 c-133 -45 -230 -122 -311 -245 -26 -40 -51 -82 -54 -93
-5 -14 20 -57 94 -163 56 -79 101 -148 101 -152 0 -5 -16 -33 -35 -61 -19 -29
-35 -56 -35 -60 1 -9 350 -266 355 -261 6 6 -25 126 -44 171 -25 57 -82 121
-137 153 l-42 25 14 44 c9 24 37 69 64 100 60 68 104 140 97 159 -3 8 -43 26
-89 42 -46 15 -98 33 -116 41 l-34 14 43 47 c65 73 148 162 198 215 43 44 44
47 21 47 -14 0 -54 -11 -90 -23z"/>
<path d="M6240 11413 c-51 -8 -146 -47 -187 -76 -143 -102 -152 -299 -20 -430
89 -90 228 -133 395 -125 167 9 281 66 335 168 25 48 28 64 25 125 -6 128 -93
262 -165 253 -22 -2 -29 -9 -34 -38 -10 -47 -32 -60 -106 -60 l-63 0 -20 40
c-23 46 -25 75 -5 110 8 14 14 28 15 33 0 7 -124 8 -170 0z m-85 -165 c0 -98
3 -120 24 -165 41 -92 120 -147 229 -160 l55 -6 -39 -21 c-55 -29 -164 -29
-220 1 -65 34 -100 69 -128 125 -46 92 -31 221 35 301 17 20 34 37 37 37 4 0
7 -51 7 -112z"/>
<path d="M11390 10725 c0 -25 41 -80 75 -100 64 -37 65 -40 43 -125 -14 -55
-18 -98 -16 -162 4 -75 8 -93 34 -135 25 -40 130 -130 141 -120 1 2 -11 41
-29 88 -42 112 -45 229 -9 302 79 160 337 166 496 11 132 -127 116 -293 -40
-444 -37 -34 -62 -66 -58 -69 80 -56 107 -78 140 -115 l40 -45 50 92 c59 108
83 204 83 338 0 111 -14 179 -53 252 -92 174 -283 237 -722 237 -96 0 -175 -2
-175 -5z"/>
<path d="M4334 10605 c-72 -123 -107 -315 -107 -585 0 -214 16 -363 59 -528
26 -101 89 -246 103 -238 4 3 11 63 14 133 4 70 14 169 22 219 14 86 107 429
119 441 10 10 102 -196 144 -322 158 -469 147 -988 -29 -1336 -37 -75 -38 -79
-19 -89 49 -26 135 113 218 351 49 141 61 219 68 459 10 299 -16 565 -82 829
-86 349 -227 575 -422 679 l-61 33 -27 -46z"/>
<path d="M11959 10430 c-40 -12 -75 -38 -87 -66 -18 -38 -14 -104 8 -152 19
-42 21 -43 52 -37 50 11 66 31 73 94 4 31 17 82 30 114 l23 57 -37 -1 c-20 0
-48 -4 -62 -9z"/>
<path d="M13910 10173 c-14 -3 -58 -20 -98 -39 -94 -43 -196 -142 -281 -274
-51 -79 -103 -196 -89 -203 1 -1 17 -10 35 -20 l32 -17 37 34 38 34 50 -24
c28 -14 59 -29 69 -35 10 -5 30 -15 45 -20 l27 -10 -22 23 c-67 71 -83 191
-38 283 104 213 441 226 544 21 48 -97 36 -225 -30 -316 l-31 -43 30 6 c76 15
100 33 132 99 48 97 105 148 166 148 28 0 94 35 94 51 0 5 -38 38 -85 72 -208
154 -368 226 -514 232 -47 2 -97 1 -111 -2z"/>
<path d="M15374 10113 c-4 -23 3 -138 19 -288 43 -396 50 -520 44 -800 -7
-345 -36 -531 -124 -795 -43 -130 -152 -369 -179 -391 -18 -15 -34 -3 -34 27
0 13 -3 24 -7 24 -3 0 -58 -51 -122 -113 -88 -85 -126 -116 -157 -125 -60 -18
-91 -15 -107 9 -15 20 -18 19 -143 -71 -128 -92 -177 -121 -243 -145 -56 -21
-11 -17 50 4 30 10 90 35 132 54 l77 36 46 -38 c83 -69 81 -69 164 -16 39 25
74 44 77 41 8 -8 -27 -117 -63 -194 -90 -196 -267 -361 -547 -512 -43 -23 -76
-44 -74 -47 8 -8 163 29 267 64 58 19 155 60 215 91 176 90 267 194 349 405
36 91 78 240 78 275 0 12 7 22 15 22 8 0 12 -4 9 -9 -8 -13 19 -21 68 -21 47
0 60 10 113 90 142 211 254 521 300 826 24 163 23 550 -1 759 -29 248 -105
718 -137 838 -9 34 -13 37 -44 37 -31 0 -35 -3 -41 -37z"/>
<path d="M13977 9852 c-42 -88 -46 -121 -17 -147 18 -17 21 -16 66 10 56 33
78 76 64 126 -20 70 -32 89 -55 89 -18 0 -29 -15 -58 -78z"/>
<path d="M12347 9393 c-11 -3 -16 -10 -13 -20 3 -8 6 -27 6 -43 0 -47 19 -56
126 -64 54 -4 100 -9 103 -12 3 -2 -3 -27 -13 -55 -18 -48 -18 -53 -1 -105 40
-126 -5 -245 -144 -385 -131 -130 -293 -226 -467 -274 -93 -26 -285 -31 -378
-11 -91 21 -215 80 -277 134 -24 20 -63 50 -86 66 -23 15 -66 58 -94 95 -54
69 -58 56 -10 -34 59 -113 208 -229 382 -299 143 -57 222 -71 414 -71 193 0
251 11 374 71 87 43 184 134 220 208 13 26 26 44 30 39 4 -4 29 -60 56 -123
101 -242 151 -326 257 -431 90 -90 197 -144 329 -166 77 -13 132 -15 302 -8
l209 7 -5 24 c-4 22 -1 24 39 24 37 0 51 7 106 54 35 29 92 78 127 107 35 30
84 83 110 119 l46 65 -90 -84 c-107 -100 -150 -128 -230 -153 -34 -11 -73 -32
-91 -49 -41 -40 -80 -49 -205 -50 -181 -1 -300 31 -438 119 -72 45 -186 163
-230 236 -80 134 -131 332 -131 513 0 103 7 120 63 160 43 32 87 101 87 140 0
10 4 24 9 32 11 17 42 2 92 -46 39 -37 108 -67 123 -53 15 15 -15 110 -48 153
-59 78 -168 135 -314 163 -69 13 -303 18 -345 7z"/>
<path d="M9847 8989 c-91 -53 -79 -422 25 -748 76 -237 220 -432 418 -563 91
-60 189 -112 196 -105 3 3 -36 37 -85 76 -140 110 -250 286 -331 528 -73 221
-85 298 -85 557 l0 230 -40 17 c-45 21 -72 23 -98 8z"/>
<path d="M12014 8038 c10 -49 69 -129 123 -165 72 -49 153 -73 242 -73 93 0
150 24 259 107 92 71 84 79 -78 73 -245 -9 -309 -5 -395 24 -44 15 -94 36
-111 47 -43 26 -48 24 -40 -13z"/>
<path d="M11535 7808 c4 -13 26 -56 48 -97 85 -150 238 -283 432 -377 363
-175 765 -155 1075 56 33 22 60 43 60 45 0 2 -46 -18 -102 -45 -216 -103 -400
-146 -578 -137 -135 8 -202 25 -325 87 -128 63 -208 124 -370 280 -147 142
-224 210 -237 210 -5 0 -6 -10 -3 -22z"/>
<path d="M11286 7360 c-58 -29 -71 -44 -121 -140 -133 -258 -195 -545 -139
-641 23 -40 72 -75 123 -89 87 -24 218 -4 455 70 55 17 103 27 106 23 4 -5 32
-47 63 -94 79 -120 152 -166 284 -176 89 -7 137 5 258 62 52 25 98 45 103 45
4 0 19 -19 32 -42 62 -110 262 -279 364 -308 152 -42 255 36 306 236 33 128
46 317 30 459 -17 161 -17 161 -87 175 -134 29 -343 -7 -508 -87 l-78 -37 -26
34 c-53 73 -157 167 -216 195 -52 26 -71 30 -145 30 -92 0 -145 -19 -203 -73
l-28 -27 -82 86 c-45 47 -120 127 -167 177 -126 134 -224 171 -324 122z"/>
</g>
</svg>
